<svg width="20" height="21" viewBox="0 0 20 21" fill="none" xmlns="http://www.w3.org/2000/svg">
<path d="M10.4 18.9C10.2 18.27 10 17.535 10 16.8C10 15.225 10.6 13.755 11.5 12.6H10V10.5H12V12.075C12.6 11.55 13.3 11.13 14 10.815V0H0V18.9H6V15.225H8V18.9H10.4ZM10 2.1H12V4.2H10V2.1ZM10 6.3H12V8.4H10V6.3ZM4 16.8H2V14.7H4V16.8ZM4 12.6H2V10.5H4V12.6ZM4 8.4H2V6.3H4V8.4ZM4 4.2H2V2.1H4V4.2ZM6 2.1H8V4.2H6V2.1ZM6 6.3H8V8.4H6V6.3ZM6 12.6V10.5H8V12.6H6ZM17 12.6V15.75H20V17.85H17V21H15V17.85H12V15.75H15V12.6H17Z" fill="white"/>
</svg>
